<svg width="207" height="61" viewBox="0 0 207 61" fill="none" xmlns="http://www.w3.org/2000/svg">
<g filter="url(#filter0_d_212_92)">
<circle cx="30.5" cy="26.5" r="20.5" fill="#02B3FF"/>
<circle cx="51.5642" cy="26.5" r="20.5" fill="#FFB800"/>
<path fill-rule="evenodd" clip-rule="evenodd" d="M40.9118 44.1563C46.8522 40.5661 50.8236 34.0463 50.8236 26.5988C50.8236 19.1514 46.8522 12.6315 40.9118 9.04138C34.9713 12.6315 31 19.1514 31 26.5988C31 34.0463 34.9713 40.5661 40.9118 44.1563Z" fill="#00C259"/>
<path d="M65.6 35.175C64.4333 35.175 63.3833 34.975 62.45 34.575C61.5167 34.1583 60.7833 33.575 60.25 32.825C59.7167 32.075 59.45 31.2 59.45 30.2H62.5C62.5667 30.95 62.8583 31.5667 63.375 32.05C63.9083 32.5333 64.65 32.775 65.6 32.775C66.5833 32.775 67.35 32.5417 67.9 32.075C68.45 31.5917 68.725 30.975 68.725 30.225C68.725 29.6417 68.55 29.1667 68.2 28.8C67.8667 28.4333 67.4417 28.15 66.925 27.95C66.425 27.75 65.725 27.5333 64.825 27.3C63.6917 27 62.7667 26.7 62.05 26.4C61.35 26.0833 60.75 25.6 60.25 24.95C59.75 24.3 59.5 23.4333 59.5 22.35C59.5 21.35 59.75 20.475 60.25 19.725C60.75 18.975 61.45 18.4 62.35 18C63.25 17.6 64.2917 17.4 65.475 17.4C67.1583 17.4 68.5333 17.825 69.6 18.675C70.6833 19.5083 71.2833 20.6583 71.4 22.125H68.25C68.2 21.4917 67.9 20.95 67.35 20.5C66.8 20.05 66.075 19.825 65.175 19.825C64.3583 19.825 63.6917 20.0333 63.175 20.45C62.6583 20.8667 62.4 21.4667 62.4 22.25C62.4 22.7833 62.5583 23.225 62.875 23.575C63.2083 23.9083 63.625 24.175 64.125 24.375C64.625 24.575 65.3083 24.7917 66.175 25.025C67.325 25.3417 68.2583 25.6583 68.975 25.975C69.7083 26.2917 70.325 26.7833 70.825 27.45C71.3417 28.1 71.6 28.975 71.6 30.075C71.6 30.9583 71.3583 31.7917 70.875 32.575C70.4083 33.3583 69.7167 33.9917 68.8 34.475C67.9 34.9417 66.8333 35.175 65.6 35.175ZM78.2879 23.55V31.175C78.2879 31.6917 78.4046 32.0667 78.6379 32.3C78.8879 32.5167 79.3046 32.625 79.8879 32.625H81.6379V35H79.3879C78.1046 35 77.1212 34.7 76.4379 34.1C75.7546 33.5 75.4129 32.525 75.4129 31.175V23.55H73.7879V21.225H75.4129V17.8H78.2879V21.225H81.6379V23.55H78.2879ZM83.3146 28.05C83.3146 26.6667 83.598 25.4417 84.1646 24.375C84.748 23.3083 85.5313 22.4833 86.5146 21.9C87.5146 21.3 88.6146 21 89.8146 21C90.898 21 91.8396 21.2167 92.6396 21.65C93.4563 22.0667 94.1063 22.5917 94.5896 23.225V21.225H97.4646V35H94.5896V32.95C94.1063 33.6 93.448 34.1417 92.6146 34.575C91.7813 35.0083 90.8313 35.225 89.7646 35.225C88.5813 35.225 87.498 34.925 86.5146 34.325C85.5313 33.7083 84.748 32.8583 84.1646 31.775C83.598 30.675 83.3146 29.4333 83.3146 28.05ZM94.5896 28.1C94.5896 27.15 94.3896 26.325 93.9896 25.625C93.6063 24.925 93.098 24.3917 92.4646 24.025C91.8313 23.6583 91.148 23.475 90.4146 23.475C89.6813 23.475 88.998 23.6583 88.3646 24.025C87.7313 24.375 87.2146 24.9 86.8146 25.6C86.4313 26.2833 86.2396 27.1 86.2396 28.05C86.2396 29 86.4313 29.8333 86.8146 30.55C87.2146 31.2667 87.7313 31.8167 88.3646 32.2C89.0146 32.5667 89.698 32.75 90.4146 32.75C91.148 32.75 91.8313 32.5667 92.4646 32.2C93.098 31.8333 93.6063 31.3 93.9896 30.6C94.3896 29.8833 94.5896 29.05 94.5896 28.1ZM113.608 21.225L105.158 41.475H102.208L105.008 34.775L99.583 21.225H102.758L106.633 31.725L110.658 21.225H113.608Z" fill="#02B3FF"/>
<path d="M114.809 26.275C114.809 24.575 115.2 23.05 115.984 21.7C116.784 20.35 117.859 19.3 119.209 18.55C120.575 17.7833 122.067 17.4 123.684 17.4C125.534 17.4 127.175 17.8583 128.609 18.775C130.059 19.675 131.109 20.9583 131.759 22.625H128.334C127.884 21.7083 127.259 21.025 126.459 20.575C125.659 20.125 124.734 19.9 123.684 19.9C122.534 19.9 121.509 20.1583 120.609 20.675C119.709 21.1917 119 21.9333 118.484 22.9C117.984 23.8667 117.734 24.9917 117.734 26.275C117.734 27.5583 117.984 28.6833 118.484 29.65C119 30.6167 119.709 31.3667 120.609 31.9C121.509 32.4167 122.534 32.675 123.684 32.675C124.734 32.675 125.659 32.45 126.459 32C127.259 31.55 127.884 30.8667 128.334 29.95H131.759C131.109 31.6167 130.059 32.9 128.609 33.8C127.175 34.7 125.534 35.15 123.684 35.15C122.05 35.15 120.559 34.775 119.209 34.025C117.859 33.2583 116.784 32.2 115.984 30.85C115.2 29.5 114.809 27.975 114.809 26.275ZM134.145 28.05C134.145 26.6667 134.428 25.4417 134.995 24.375C135.578 23.3083 136.361 22.4833 137.345 21.9C138.345 21.3 139.445 21 140.645 21C141.728 21 142.67 21.2167 143.47 21.65C144.286 22.0667 144.936 22.5917 145.42 23.225V21.225H148.295V35H145.42V32.95C144.936 33.6 144.278 34.1417 143.445 34.575C142.611 35.0083 141.661 35.225 140.595 35.225C139.411 35.225 138.328 34.925 137.345 34.325C136.361 33.7083 135.578 32.8583 134.995 31.775C134.428 30.675 134.145 29.4333 134.145 28.05ZM145.42 28.1C145.42 27.15 145.22 26.325 144.82 25.625C144.436 24.925 143.928 24.3917 143.295 24.025C142.661 23.6583 141.978 23.475 141.245 23.475C140.511 23.475 139.828 23.6583 139.195 24.025C138.561 24.375 138.045 24.9 137.645 25.6C137.261 26.2833 137.07 27.1 137.07 28.05C137.07 29 137.261 29.8333 137.645 30.55C138.045 31.2667 138.561 31.8167 139.195 32.2C139.845 32.5667 140.528 32.75 141.245 32.75C141.978 32.75 142.661 32.5667 143.295 32.2C143.928 31.8333 144.436 31.3 144.82 30.6C145.22 29.8833 145.42 29.05 145.42 28.1ZM155.363 23.55V31.175C155.363 31.6917 155.48 32.0667 155.713 32.3C155.963 32.5167 156.38 32.625 156.963 32.625H158.713V35H156.463C155.18 35 154.196 34.7 153.513 34.1C152.83 33.5 152.488 32.525 152.488 31.175V23.55H150.863V21.225H152.488V17.8H155.363V21.225H158.713V23.55H155.363ZM162.79 19.4C162.273 19.4 161.84 19.225 161.49 18.875C161.14 18.525 160.965 18.0917 160.965 17.575C160.965 17.0583 161.14 16.625 161.49 16.275C161.84 15.925 162.273 15.75 162.79 15.75C163.29 15.75 163.715 15.925 164.065 16.275C164.415 16.625 164.59 17.0583 164.59 17.575C164.59 18.0917 164.415 18.525 164.065 18.875C163.715 19.225 163.29 19.4 162.79 19.4ZM164.19 21.225V35H161.34V21.225H164.19ZM173.907 35.225C172.607 35.225 171.432 34.9333 170.382 34.35C169.332 33.75 168.507 32.9167 167.907 31.85C167.307 30.7667 167.007 29.5167 167.007 28.1C167.007 26.7 167.315 25.4583 167.932 24.375C168.548 23.2917 169.39 22.4583 170.457 21.875C171.523 21.2917 172.715 21 174.032 21C175.348 21 176.54 21.2917 177.607 21.875C178.673 22.4583 179.515 23.2917 180.132 24.375C180.748 25.4583 181.057 26.7 181.057 28.1C181.057 29.5 180.74 30.7417 180.107 31.825C179.473 32.9083 178.607 33.75 177.507 34.35C176.423 34.9333 175.223 35.225 173.907 35.225ZM173.907 32.75C174.64 32.75 175.323 32.575 175.957 32.225C176.607 31.875 177.132 31.35 177.532 30.65C177.932 29.95 178.132 29.1 178.132 28.1C178.132 27.1 177.94 26.2583 177.557 25.575C177.173 24.875 176.665 24.35 176.032 24C175.398 23.65 174.715 23.475 173.982 23.475C173.248 23.475 172.565 23.65 171.932 24C171.315 24.35 170.823 24.875 170.457 25.575C170.09 26.2583 169.907 27.1 169.907 28.1C169.907 29.5833 170.282 30.7333 171.032 31.55C171.798 32.35 172.757 32.75 173.907 32.75ZM190.824 21C191.907 21 192.874 21.225 193.724 21.675C194.591 22.125 195.266 22.7917 195.749 23.675C196.232 24.5583 196.474 25.625 196.474 26.875V35H193.649V27.3C193.649 26.0667 193.341 25.125 192.724 24.475C192.107 23.8083 191.266 23.475 190.199 23.475C189.132 23.475 188.282 23.8083 187.649 24.475C187.032 25.125 186.724 26.0667 186.724 27.3V35H183.874V21.225H186.724V22.8C187.191 22.2333 187.782 21.7917 188.499 21.475C189.232 21.1583 190.007 21 190.824 21Z" fill="#FFB800"/>
</g>
<defs>
<filter id="filter0_d_212_92" x="0" y="0" width="206.474" height="61" filterUnits="userSpaceOnUse" color-interpolation-filters="sRGB">
<feFlood flood-opacity="0" result="BackgroundImageFix"/>
<feColorMatrix in="SourceAlpha" type="matrix" values="0 0 0 0 0 0 0 0 0 0 0 0 0 0 0 0 0 0 127 0" result="hardAlpha"/>
<feOffset dy="4"/>
<feGaussianBlur stdDeviation="5"/>
<feComposite in2="hardAlpha" operator="out"/>
<feColorMatrix type="matrix" values="0 0 0 0 0 0 0 0 0 0 0 0 0 0 0 0 0 0 0.25 0"/>
<feBlend mode="normal" in2="BackgroundImageFix" result="effect1_dropShadow_212_92"/>
<feBlend mode="normal" in="SourceGraphic" in2="effect1_dropShadow_212_92" result="shape"/>
</filter>
</defs>
</svg>
